<svg width="990" height="1017" viewBox="0 0 990 1017" fill="none" xmlns="http://www.w3.org/2000/svg">
<rect width="990" height="990" rx="495" fill="white"/>
<path d="M460.88 163.963C456.789 171.481 440.52 201.456 424.808 230.54C398.405 279.409 377.301 318.188 329.515 406.133C319.475 424.632 305.622 450.254 298.65 463.015C280.707 496.255 230.411 589.245 197.221 650.48L168.865 702.911L455.302 703.207C612.791 703.306 741.832 703.207 742.018 703.009C742.204 702.812 740.251 698.558 737.741 693.611C732.721 684.016 732.256 682.631 734.208 682.631C736.997 682.631 754.382 672.639 761.355 667.099C782.18 650.48 796.404 625.353 800.03 598.643C801.425 588.256 800.681 568.767 798.543 558.973C793.987 538.199 781.715 518.216 766.004 505.949L760.054 501.3L764.795 495.76C781.157 476.766 788.688 451.639 785.992 425.325C781.808 384.765 755.312 352.713 716.451 341.04C709.479 338.963 707.433 338.864 640.031 338.369L570.862 337.874L520.101 244.686C492.211 193.443 469.154 151.201 468.782 150.905C468.504 150.608 464.878 156.444 460.88 163.963ZM438.01 418.697C454.279 449.067 467.853 473.897 468.132 473.897C468.411 473.897 482.17 448.77 498.718 418.004C515.267 387.238 529.119 362.408 529.491 362.804C531.072 364.584 685.772 650.678 687.073 654.239C687.352 655.129 680.379 655.327 659.182 655.129L630.92 654.833L610.188 616.548C598.846 595.477 578.114 557.292 564.261 531.769C550.409 506.147 536.836 481.119 534.139 476.074C531.35 471.028 529.026 467.071 528.933 467.17C528.561 467.566 499.369 521.283 497.882 524.152C496.58 526.724 496.673 526.823 511.734 554.522C516.197 562.634 527.26 583.111 536.371 600.028C545.482 616.845 555.801 635.938 559.334 642.269C562.774 648.6 565.656 654.041 565.656 654.338C565.656 654.734 553.012 654.833 537.672 654.734L509.596 654.437L499.927 636.63C486.818 612.789 432.525 512.973 418.951 488.044C413.001 476.964 407.888 467.962 407.609 467.962C407.33 467.962 398.963 482.998 389.015 501.399C379.068 519.7 361.682 551.653 350.433 572.328C339.091 593.004 324.495 619.912 317.894 631.981C311.386 644.149 305.529 654.338 304.971 654.536C304.414 654.734 291.491 654.833 276.337 654.734L248.725 654.437L284.054 589.146C315.849 530.681 323.565 516.139 328.4 506.048C329.236 504.366 330.166 502.883 330.538 502.586C330.91 502.289 336.953 491.407 344.018 478.349C350.991 465.291 363.263 442.538 371.165 427.897C379.068 413.157 386.412 399.406 387.342 397.23C389.573 392.382 390.782 390.107 393.292 386.348C394.314 384.666 397.847 378.335 401.101 372.301C405.006 365.079 407.33 361.617 407.795 362.408C408.167 363.002 421.833 388.425 438.01 418.697ZM709.85 401.385C717.288 405.243 723.796 412.365 727.236 420.28C729.467 425.226 729.746 427.105 729.746 436.306C729.746 445.011 729.374 447.484 727.607 451.54C723.052 462.125 714.778 469.742 703.25 474.095C697.393 476.272 696.091 476.37 658.439 476.667L619.578 476.964V437.295V397.626L661.693 397.922L703.714 398.219L709.85 401.385ZM708.084 536.616C724.075 540.277 736.532 551.554 741.367 566.986C743.133 572.328 743.319 574.999 743.04 584.298C742.761 594.587 742.575 595.576 739.229 602.699C733.743 614.669 723.703 623.374 711.338 626.837C704.086 628.914 700.925 628.617 699.81 625.946C699.066 624.363 662.901 556.995 651.466 535.924C650.722 534.539 701.39 535.132 708.084 536.616Z" fill="black"/>
</svg>